# xmcd
#
# Track frame offsets: 
#        150
#        20360
#        33771
#        56273
#        85437
#        105698
#        124971
#        144967
#        167304
#        186246
#        205701
#        223788
#        243264
#        258677
#        278790
#        297766
#
# Disc length: 4222 seconds
#
# Revision: 2
# Processed by: cddbd v1.5.2PL0 Copyright (c) Steve Scherf et al.
# Submitted via: ExactAudioCopyFreeDBPlugin 1.0
#
DISCID=e1107c10
DTITLE=群星 - TEST-CD试音极品07-B
DYEAR=2012
DGENRE=stereo
TTITLE0=让一切随风
TTITLE1=当威廉斯惊世之作
TTITLE2=君心我心
TTITLE3=草原儿女响曲
TTITLE4=为什么
TTITLE5=葬花吟
TTITLE6=明月夜
TTITLE7=橄榄树
TTITLE8=珊瑚颂
TTITLE9=山楂树
TTITLE10=让我们荡起双蒋
TTITLE11=流星
TTITLE12=人家的船儿蒋成双
TTITLE13=酒红色的心
TTITLE14=婚誓
TTITLE15=想你的时候
EXTD=
EXTT0=
EXTT1=
EXTT2=
EXTT3=
EXTT4=
EXTT5=
EXTT6=
EXTT7=
EXTT8=
EXTT9=
EXTT10=
EXTT11=
EXTT12=
EXTT13=
EXTT14=
EXTT15=
PLAYORDER=
